<svg width="235" height="218" viewBox="0 0 235 218" fill="none" xmlns="http://www.w3.org/2000/svg">
<mask id="path-1-outside-1" maskUnits="userSpaceOnUse" x="-12.1421" y="-63.6343" width="344.361" height="344.361" fill="black">
<rect fill="white" x="-12.1421" y="-63.6343" width="344.361" height="344.361"/>
<path d="M16.325 61.3408L72.1081 5.55765C76.0468 1.61894 81.237 -0.359057 86.4203 -0.366918C91.5999 -0.371003 96.7841 1.58373 100.715 5.51426L163.915 68.715C173.972 64.3527 183.081 66.8439 192.069 69.3052C198.237 70.9985 204.337 72.6618 209.842 71.2634C215.397 69.8461 220.838 69.1598 225.997 69.8602C231.534 70.6127 236.574 72.9067 240.839 77.4734C256.526 94.2842 265.346 100.411 280.646 111.041C285.576 114.461 291.168 118.34 297.693 123.062C302.394 125.213 304.366 129.493 304.312 135.008C304.272 138.967 303.056 143.674 301.059 148.567C299.157 153.229 296.558 158.1 293.621 162.663C285.099 175.886 272.941 187.036 264.818 185.259C264.408 185.166 264.02 185.027 263.662 184.85C262.691 184.385 261.471 183.837 260.063 183.221L256.265 181.596C248.843 182.308 241.071 182.851 233.315 182.61C225.861 182.376 218.509 181.408 211.653 179.17C207.5 182.299 205.896 184.603 203.065 188.66C201.838 190.421 200.429 192.446 199.018 194.355C194.639 200.268 188.233 201.445 182.476 199.77C180.07 199.07 177.778 197.834 175.844 196.224C173.858 194.57 172.222 192.519 171.182 190.242L170.991 189.764C170.799 189.308 170.631 188.845 170.484 188.382L156.925 201.941C152.983 205.884 147.796 207.858 142.613 207.866C137.433 207.877 132.246 205.911 128.319 201.985L16.2816 89.9473C12.351 86.0168 10.3925 80.8364 10.4004 75.653C10.4082 70.4697 12.3825 65.2833 16.325 61.3408ZM202.608 107.407L216.613 107.386C219.71 107.374 222.226 109.875 222.233 112.968C222.236 116.064 219.723 118.592 216.63 118.6L200.236 118.633C192.487 119.289 184.518 120.224 176.38 121.381C167.661 122.63 158.599 124.154 149.266 125.897C144.785 126.737 142.239 128.831 141.26 131.24C140.829 132.303 140.684 133.478 140.807 134.642C140.937 135.859 141.349 137.041 142.007 138.076C143.473 140.386 146.212 142.062 149.919 141.996C159.804 141.831 168.716 141.938 177.538 142.587C185.587 143.182 193.568 144.236 202.15 145.952C203.457 145.758 204.821 146.072 205.946 146.91C206.412 147.151 206.853 147.455 207.248 147.85C207.402 148.004 207.548 148.174 207.688 148.343C213.568 153.137 218.528 156.271 223.63 158.158C229.134 160.199 235.096 160.902 242.86 160.796C245.674 160.75 247.987 163.003 248.024 165.825C248.058 168.642 245.798 170.962 242.984 171.008C233.962 171.131 226.877 170.256 220.051 167.724C214.626 165.717 209.534 162.73 203.932 158.448L181.717 180.993C180.114 182.619 179.855 184.315 180.377 185.711L180.497 185.96C180.914 186.867 181.579 187.698 182.392 188.375C183.265 189.105 184.3 189.664 185.373 189.975C187.293 190.53 189.411 190.165 190.826 188.253C192.623 185.832 193.737 184.222 194.699 182.846C198.686 177.121 200.687 174.248 207.976 169.26C209.318 168.347 211.067 168.081 212.689 168.7C219.146 171.172 226.317 172.194 233.67 172.423C241.098 172.661 248.832 172.08 256.247 171.346C257.177 171.19 258.16 171.283 259.09 171.677L264.176 173.85L267.474 175.337C271.233 175.391 278.765 166.852 285.025 157.131C287.691 152.998 289.996 148.7 291.618 144.731C293.141 140.996 294.066 137.574 294.096 134.941C294.109 133.558 293.877 132.594 293.324 132.298C292.902 132.14 292.5 131.926 292.127 131.651C285.301 126.712 279.717 122.833 274.806 119.416C258.934 108.395 249.782 102.036 233.389 84.4724C230.865 81.7678 227.876 80.4087 224.592 79.9616C220.927 79.4662 216.741 80.0338 212.321 81.1593C204.208 83.2246 196.812 81.2016 189.338 79.1524C183.603 77.5828 177.801 75.9981 172.119 76.9184L202.608 107.407ZM101.829 105.202C104.082 105.003 106.069 106.672 106.257 108.928C106.453 111.184 104.774 113.172 102.521 113.372C99.2473 113.659 95.9782 113.219 92.9738 112.132C89.9355 111.032 87.1581 109.289 84.8412 106.972C82.2835 104.414 80.4198 101.29 79.3626 97.9319C78.3129 94.5884 78.0661 90.9611 78.7044 87.3589C79.0995 85.1283 81.2339 83.6409 83.4633 84.0368C85.689 84.4289 87.1738 86.555 86.7749 88.7819C86.3797 91.0126 86.5457 93.3064 87.2168 95.4413C87.8841 97.5498 89.0564 99.5219 90.6738 101.139C92.1444 102.61 93.9057 103.722 95.807 104.416C97.7045 105.107 99.7684 105.382 101.829 105.202ZM100.454 75.5391C98.201 75.7384 96.2146 74.0688 96.0184 71.8127C95.8259 69.5604 97.509 67.5688 99.762 67.3695C103.032 67.0858 106.301 67.5254 109.306 68.6132C112.348 69.7086 115.125 71.4523 117.442 73.7692C120 76.3269 121.863 79.4506 122.917 82.813C123.966 86.1564 124.213 89.7837 123.579 93.3821C123.176 95.6128 121.046 97.104 118.816 96.708C116.59 96.3159 115.106 94.1898 115.505 91.9629C115.903 89.7285 115.734 87.4384 115.066 85.2998C114.399 83.1913 113.227 81.2191 111.609 79.6018C110.139 78.1311 108.374 77.0226 106.472 76.3285C104.579 75.6345 102.511 75.3627 100.454 75.5391ZM103.21 121.379C105.47 121.18 107.464 122.849 107.66 125.105C107.86 127.365 106.185 129.364 103.924 129.571C98.2656 130.069 92.62 129.306 87.3868 127.408C82.1461 125.509 77.3289 122.488 73.3269 118.486C68.8923 114.052 65.6798 108.658 63.8541 102.841C62.0321 97.0428 61.5933 90.7639 62.7027 84.5617C63.1054 82.3311 65.236 80.8474 67.4655 81.2358C69.6949 81.6317 71.1721 83.7578 70.777 85.9885C69.9107 90.8266 70.2649 95.7608 71.7082 100.351C73.1403 104.922 75.6653 109.159 79.1595 112.654C82.3378 115.832 86.1124 118.211 90.2011 119.696C94.2974 121.182 98.7453 121.774 103.21 121.379ZM99.0735 59.362C96.8092 59.5651 94.8152 57.8956 94.619 55.6394C94.419 53.3795 96.0984 51.3767 98.3551 51.1737C104.014 50.6754 109.663 51.4353 114.896 53.3334C120.133 55.2353 124.951 58.2567 128.953 62.2587C133.387 66.6932 136.603 72.0827 138.425 77.9037C140.251 83.6983 140.69 89.9772 139.577 96.1831C139.178 98.41 137.043 99.8974 134.814 99.509C132.585 99.1131 131.107 96.987 131.502 94.7563C132.372 89.9144 132.018 84.9802 130.571 80.3942C129.143 75.8195 126.61 71.5817 123.12 68.0913C119.942 64.913 116.167 62.5342 112.078 61.0487C107.982 59.5632 103.538 58.9672 99.0735 59.362ZM96.1635 95.3486C93.4215 92.6066 93.4283 88.154 96.1748 85.4075C98.9251 82.6572 103.378 82.6505 106.12 85.3924C108.862 88.1344 108.855 92.587 106.105 95.3373C103.358 98.0838 98.9055 98.0906 96.1635 95.3486ZM190.053 109.363L159.263 78.5727L93.4597 12.7692C91.5264 10.8359 88.9588 9.86788 86.4048 9.87176C83.8433 9.87564 81.2802 10.8514 79.3411 12.7906L23.5579 68.5738C21.6187 70.5129 20.6392 73.0797 20.6391 75.6375C20.6314 78.1953 21.6032 80.7591 23.5365 82.6924L135.574 194.73C137.511 196.667 140.067 197.631 142.629 197.627C145.183 197.623 147.753 196.647 149.692 194.708L190.162 154.238C185.635 153.582 181.195 153.103 176.731 152.775L176.558 152.76C176.293 156.019 174.921 159.196 172.442 161.675C169.673 164.444 166.028 165.832 162.393 165.841C158.743 165.858 155.11 164.474 152.338 161.702C149.697 159.061 148.316 155.635 148.201 152.17C141.474 151.728 136.356 148.24 133.399 143.577C131.88 141.191 130.943 138.496 130.653 135.761C130.36 132.978 130.722 130.103 131.818 127.404C134.015 122.003 139.051 117.426 147.442 115.857C156.795 114.11 165.981 112.567 174.952 111.284C180.095 110.549 185.133 109.905 190.053 109.363ZM169.759 152.375C165.009 152.175 160.146 152.118 155.031 152.148C155.149 153.873 155.862 155.552 157.174 156.865C158.615 158.306 160.505 159.026 162.392 159.027C164.279 159.028 166.172 158.302 167.62 156.853C168.877 155.597 169.587 154.006 169.759 152.375Z"/>
</mask>
<path d="M16.325 61.3408L72.1081 5.55765C76.0468 1.61894 81.237 -0.359057 86.4203 -0.366918C91.5999 -0.371003 96.7841 1.58373 100.715 5.51426L163.915 68.715C173.972 64.3527 183.081 66.8439 192.069 69.3052C198.237 70.9985 204.337 72.6618 209.842 71.2634C215.397 69.8461 220.838 69.1598 225.997 69.8602C231.534 70.6127 236.574 72.9067 240.839 77.4734C256.526 94.2842 265.346 100.411 280.646 111.041C285.576 114.461 291.168 118.34 297.693 123.062C302.394 125.213 304.366 129.493 304.312 135.008C304.272 138.967 303.056 143.674 301.059 148.567C299.157 153.229 296.558 158.1 293.621 162.663C285.099 175.886 272.941 187.036 264.818 185.259C264.408 185.166 264.02 185.027 263.662 184.85C262.691 184.385 261.471 183.837 260.063 183.221L256.265 181.596C248.843 182.308 241.071 182.851 233.315 182.61C225.861 182.376 218.509 181.408 211.653 179.17C207.5 182.299 205.896 184.603 203.065 188.66C201.838 190.421 200.429 192.446 199.018 194.355C194.639 200.268 188.233 201.445 182.476 199.77C180.07 199.07 177.778 197.834 175.844 196.224C173.858 194.57 172.222 192.519 171.182 190.242L170.991 189.764C170.799 189.308 170.631 188.845 170.484 188.382L156.925 201.941C152.983 205.884 147.796 207.858 142.613 207.866C137.433 207.877 132.246 205.911 128.319 201.985L16.2816 89.9473C12.351 86.0168 10.3925 80.8364 10.4004 75.653C10.4082 70.4697 12.3825 65.2833 16.325 61.3408ZM202.608 107.407L216.613 107.386C219.71 107.374 222.226 109.875 222.233 112.968C222.236 116.064 219.723 118.592 216.63 118.6L200.236 118.633C192.487 119.289 184.518 120.224 176.38 121.381C167.661 122.63 158.599 124.154 149.266 125.897C144.785 126.737 142.239 128.831 141.26 131.24C140.829 132.303 140.684 133.478 140.807 134.642C140.937 135.859 141.349 137.041 142.007 138.076C143.473 140.386 146.212 142.062 149.919 141.996C159.804 141.831 168.716 141.938 177.538 142.587C185.587 143.182 193.568 144.236 202.15 145.952C203.457 145.758 204.821 146.072 205.946 146.91C206.412 147.151 206.853 147.455 207.248 147.85C207.402 148.004 207.548 148.174 207.688 148.343C213.568 153.137 218.528 156.271 223.63 158.158C229.134 160.199 235.096 160.902 242.86 160.796C245.674 160.75 247.987 163.003 248.024 165.825C248.058 168.642 245.798 170.962 242.984 171.008C233.962 171.131 226.877 170.256 220.051 167.724C214.626 165.717 209.534 162.73 203.932 158.448L181.717 180.993C180.114 182.619 179.855 184.315 180.377 185.711L180.497 185.96C180.914 186.867 181.579 187.698 182.392 188.375C183.265 189.105 184.3 189.664 185.373 189.975C187.293 190.53 189.411 190.165 190.826 188.253C192.623 185.832 193.737 184.222 194.699 182.846C198.686 177.121 200.687 174.248 207.976 169.26C209.318 168.347 211.067 168.081 212.689 168.7C219.146 171.172 226.317 172.194 233.67 172.423C241.098 172.661 248.832 172.08 256.247 171.346C257.177 171.19 258.16 171.283 259.09 171.677L264.176 173.85L267.474 175.337C271.233 175.391 278.765 166.852 285.025 157.131C287.691 152.998 289.996 148.7 291.618 144.731C293.141 140.996 294.066 137.574 294.096 134.941C294.109 133.558 293.877 132.594 293.324 132.298C292.902 132.14 292.5 131.926 292.127 131.651C285.301 126.712 279.717 122.833 274.806 119.416C258.934 108.395 249.782 102.036 233.389 84.4724C230.865 81.7678 227.876 80.4087 224.592 79.9616C220.927 79.4662 216.741 80.0338 212.321 81.1593C204.208 83.2246 196.812 81.2016 189.338 79.1524C183.603 77.5828 177.801 75.9981 172.119 76.9184L202.608 107.407ZM101.829 105.202C104.082 105.003 106.069 106.672 106.257 108.928C106.453 111.184 104.774 113.172 102.521 113.372C99.2473 113.659 95.9782 113.219 92.9738 112.132C89.9355 111.032 87.1581 109.289 84.8412 106.972C82.2835 104.414 80.4198 101.29 79.3626 97.9319C78.3129 94.5884 78.0661 90.9611 78.7044 87.3589C79.0995 85.1283 81.2339 83.6409 83.4633 84.0368C85.689 84.4289 87.1738 86.555 86.7749 88.7819C86.3797 91.0126 86.5457 93.3064 87.2168 95.4413C87.8841 97.5498 89.0564 99.5219 90.6738 101.139C92.1444 102.61 93.9057 103.722 95.807 104.416C97.7045 105.107 99.7684 105.382 101.829 105.202ZM100.454 75.5391C98.201 75.7384 96.2146 74.0688 96.0184 71.8127C95.8259 69.5604 97.509 67.5688 99.762 67.3695C103.032 67.0858 106.301 67.5254 109.306 68.6132C112.348 69.7086 115.125 71.4523 117.442 73.7692C120 76.3269 121.863 79.4506 122.917 82.813C123.966 86.1564 124.213 89.7837 123.579 93.3821C123.176 95.6128 121.046 97.104 118.816 96.708C116.59 96.3159 115.106 94.1898 115.505 91.9629C115.903 89.7285 115.734 87.4384 115.066 85.2998C114.399 83.1913 113.227 81.2191 111.609 79.6018C110.139 78.1311 108.374 77.0226 106.472 76.3285C104.579 75.6345 102.511 75.3627 100.454 75.5391ZM103.21 121.379C105.47 121.18 107.464 122.849 107.66 125.105C107.86 127.365 106.185 129.364 103.924 129.571C98.2656 130.069 92.62 129.306 87.3868 127.408C82.1461 125.509 77.3289 122.488 73.3269 118.486C68.8923 114.052 65.6798 108.658 63.8541 102.841C62.0321 97.0428 61.5933 90.7639 62.7027 84.5617C63.1054 82.3311 65.236 80.8474 67.4655 81.2358C69.6949 81.6317 71.1721 83.7578 70.777 85.9885C69.9107 90.8266 70.2649 95.7608 71.7082 100.351C73.1403 104.922 75.6653 109.159 79.1595 112.654C82.3378 115.832 86.1124 118.211 90.2011 119.696C94.2974 121.182 98.7453 121.774 103.21 121.379ZM99.0735 59.362C96.8092 59.5651 94.8152 57.8956 94.619 55.6394C94.419 53.3795 96.0984 51.3767 98.3551 51.1737C104.014 50.6754 109.663 51.4353 114.896 53.3334C120.133 55.2353 124.951 58.2567 128.953 62.2587C133.387 66.6932 136.603 72.0827 138.425 77.9037C140.251 83.6983 140.69 89.9772 139.577 96.1831C139.178 98.41 137.043 99.8974 134.814 99.509C132.585 99.1131 131.107 96.987 131.502 94.7563C132.372 89.9144 132.018 84.9802 130.571 80.3942C129.143 75.8195 126.61 71.5817 123.12 68.0913C119.942 64.913 116.167 62.5342 112.078 61.0487C107.982 59.5632 103.538 58.9672 99.0735 59.362ZM96.1635 95.3486C93.4215 92.6066 93.4283 88.154 96.1748 85.4075C98.9251 82.6572 103.378 82.6505 106.12 85.3924C108.862 88.1344 108.855 92.587 106.105 95.3373C103.358 98.0838 98.9055 98.0906 96.1635 95.3486ZM190.053 109.363L159.263 78.5727L93.4597 12.7692C91.5264 10.8359 88.9588 9.86788 86.4048 9.87176C83.8433 9.87564 81.2802 10.8514 79.3411 12.7906L23.5579 68.5738C21.6187 70.5129 20.6392 73.0797 20.6391 75.6375C20.6314 78.1953 21.6032 80.7591 23.5365 82.6924L135.574 194.73C137.511 196.667 140.067 197.631 142.629 197.627C145.183 197.623 147.753 196.647 149.692 194.708L190.162 154.238C185.635 153.582 181.195 153.103 176.731 152.775L176.558 152.76C176.293 156.019 174.921 159.196 172.442 161.675C169.673 164.444 166.028 165.832 162.393 165.841C158.743 165.858 155.11 164.474 152.338 161.702C149.697 159.061 148.316 155.635 148.201 152.17C141.474 151.728 136.356 148.24 133.399 143.577C131.88 141.191 130.943 138.496 130.653 135.761C130.36 132.978 130.722 130.103 131.818 127.404C134.015 122.003 139.051 117.426 147.442 115.857C156.795 114.11 165.981 112.567 174.952 111.284C180.095 110.549 185.133 109.905 190.053 109.363ZM169.759 152.375C165.009 152.175 160.146 152.118 155.031 152.148C155.149 153.873 155.862 155.552 157.174 156.865C158.615 158.306 160.505 159.026 162.392 159.027C164.279 159.028 166.172 158.302 167.62 156.853C168.877 155.597 169.587 154.006 169.759 152.375Z" fill="#AED7A0"/>
<path d="M16.325 61.3408L72.1081 5.55765C76.0468 1.61894 81.237 -0.359057 86.4203 -0.366918C91.5999 -0.371003 96.7841 1.58373 100.715 5.51426L163.915 68.715C173.972 64.3527 183.081 66.8439 192.069 69.3052C198.237 70.9985 204.337 72.6618 209.842 71.2634C215.397 69.8461 220.838 69.1598 225.997 69.8602C231.534 70.6127 236.574 72.9067 240.839 77.4734C256.526 94.2842 265.346 100.411 280.646 111.041C285.576 114.461 291.168 118.34 297.693 123.062C302.394 125.213 304.366 129.493 304.312 135.008C304.272 138.967 303.056 143.674 301.059 148.567C299.157 153.229 296.558 158.1 293.621 162.663C285.099 175.886 272.941 187.036 264.818 185.259C264.408 185.166 264.02 185.027 263.662 184.85C262.691 184.385 261.471 183.837 260.063 183.221L256.265 181.596C248.843 182.308 241.071 182.851 233.315 182.61C225.861 182.376 218.509 181.408 211.653 179.17C207.5 182.299 205.896 184.603 203.065 188.66C201.838 190.421 200.429 192.446 199.018 194.355C194.639 200.268 188.233 201.445 182.476 199.77C180.07 199.07 177.778 197.834 175.844 196.224C173.858 194.57 172.222 192.519 171.182 190.242L170.991 189.764C170.799 189.308 170.631 188.845 170.484 188.382L156.925 201.941C152.983 205.884 147.796 207.858 142.613 207.866C137.433 207.877 132.246 205.911 128.319 201.985L16.2816 89.9473C12.351 86.0168 10.3925 80.8364 10.4004 75.653C10.4082 70.4697 12.3825 65.2833 16.325 61.3408ZM202.608 107.407L216.613 107.386C219.71 107.374 222.226 109.875 222.233 112.968C222.236 116.064 219.723 118.592 216.63 118.6L200.236 118.633C192.487 119.289 184.518 120.224 176.38 121.381C167.661 122.63 158.599 124.154 149.266 125.897C144.785 126.737 142.239 128.831 141.26 131.24C140.829 132.303 140.684 133.478 140.807 134.642C140.937 135.859 141.349 137.041 142.007 138.076C143.473 140.386 146.212 142.062 149.919 141.996C159.804 141.831 168.716 141.938 177.538 142.587C185.587 143.182 193.568 144.236 202.15 145.952C203.457 145.758 204.821 146.072 205.946 146.91C206.412 147.151 206.853 147.455 207.248 147.85C207.402 148.004 207.548 148.174 207.688 148.343C213.568 153.137 218.528 156.271 223.63 158.158C229.134 160.199 235.096 160.902 242.86 160.796C245.674 160.75 247.987 163.003 248.024 165.825C248.058 168.642 245.798 170.962 242.984 171.008C233.962 171.131 226.877 170.256 220.051 167.724C214.626 165.717 209.534 162.73 203.932 158.448L181.717 180.993C180.114 182.619 179.855 184.315 180.377 185.711L180.497 185.96C180.914 186.867 181.579 187.698 182.392 188.375C183.265 189.105 184.3 189.664 185.373 189.975C187.293 190.53 189.411 190.165 190.826 188.253C192.623 185.832 193.737 184.222 194.699 182.846C198.686 177.121 200.687 174.248 207.976 169.26C209.318 168.347 211.067 168.081 212.689 168.7C219.146 171.172 226.317 172.194 233.67 172.423C241.098 172.661 248.832 172.08 256.247 171.346C257.177 171.19 258.16 171.283 259.09 171.677L264.176 173.85L267.474 175.337C271.233 175.391 278.765 166.852 285.025 157.131C287.691 152.998 289.996 148.7 291.618 144.731C293.141 140.996 294.066 137.574 294.096 134.941C294.109 133.558 293.877 132.594 293.324 132.298C292.902 132.14 292.5 131.926 292.127 131.651C285.301 126.712 279.717 122.833 274.806 119.416C258.934 108.395 249.782 102.036 233.389 84.4724C230.865 81.7678 227.876 80.4087 224.592 79.9616C220.927 79.4662 216.741 80.0338 212.321 81.1593C204.208 83.2246 196.812 81.2016 189.338 79.1524C183.603 77.5828 177.801 75.9981 172.119 76.9184L202.608 107.407ZM101.829 105.202C104.082 105.003 106.069 106.672 106.257 108.928C106.453 111.184 104.774 113.172 102.521 113.372C99.2473 113.659 95.9782 113.219 92.9738 112.132C89.9355 111.032 87.1581 109.289 84.8412 106.972C82.2835 104.414 80.4198 101.29 79.3626 97.9319C78.3129 94.5884 78.0661 90.9611 78.7044 87.3589C79.0995 85.1283 81.2339 83.6409 83.4633 84.0368C85.689 84.4289 87.1738 86.555 86.7749 88.7819C86.3797 91.0126 86.5457 93.3064 87.2168 95.4413C87.8841 97.5498 89.0564 99.5219 90.6738 101.139C92.1444 102.61 93.9057 103.722 95.807 104.416C97.7045 105.107 99.7684 105.382 101.829 105.202ZM100.454 75.5391C98.201 75.7384 96.2146 74.0688 96.0184 71.8127C95.8259 69.5604 97.509 67.5688 99.762 67.3695C103.032 67.0858 106.301 67.5254 109.306 68.6132C112.348 69.7086 115.125 71.4523 117.442 73.7692C120 76.3269 121.863 79.4506 122.917 82.813C123.966 86.1564 124.213 89.7837 123.579 93.3821C123.176 95.6128 121.046 97.104 118.816 96.708C116.59 96.3159 115.106 94.1898 115.505 91.9629C115.903 89.7285 115.734 87.4384 115.066 85.2998C114.399 83.1913 113.227 81.2191 111.609 79.6018C110.139 78.1311 108.374 77.0226 106.472 76.3285C104.579 75.6345 102.511 75.3627 100.454 75.5391ZM103.21 121.379C105.47 121.18 107.464 122.849 107.66 125.105C107.86 127.365 106.185 129.364 103.924 129.571C98.2656 130.069 92.62 129.306 87.3868 127.408C82.1461 125.509 77.3289 122.488 73.3269 118.486C68.8923 114.052 65.6798 108.658 63.8541 102.841C62.0321 97.0428 61.5933 90.7639 62.7027 84.5617C63.1054 82.3311 65.236 80.8474 67.4655 81.2358C69.6949 81.6317 71.1721 83.7578 70.777 85.9885C69.9107 90.8266 70.2649 95.7608 71.7082 100.351C73.1403 104.922 75.6653 109.159 79.1595 112.654C82.3378 115.832 86.1124 118.211 90.2011 119.696C94.2974 121.182 98.7453 121.774 103.21 121.379ZM99.0735 59.362C96.8092 59.5651 94.8152 57.8956 94.619 55.6394C94.419 53.3795 96.0984 51.3767 98.3551 51.1737C104.014 50.6754 109.663 51.4353 114.896 53.3334C120.133 55.2353 124.951 58.2567 128.953 62.2587C133.387 66.6932 136.603 72.0827 138.425 77.9037C140.251 83.6983 140.69 89.9772 139.577 96.1831C139.178 98.41 137.043 99.8974 134.814 99.509C132.585 99.1131 131.107 96.987 131.502 94.7563C132.372 89.9144 132.018 84.9802 130.571 80.3942C129.143 75.8195 126.61 71.5817 123.12 68.0913C119.942 64.913 116.167 62.5342 112.078 61.0487C107.982 59.5632 103.538 58.9672 99.0735 59.362ZM96.1635 95.3486C93.4215 92.6066 93.4283 88.154 96.1748 85.4075C98.9251 82.6572 103.378 82.6505 106.12 85.3924C108.862 88.1344 108.855 92.587 106.105 95.3373C103.358 98.0838 98.9055 98.0906 96.1635 95.3486ZM190.053 109.363L159.263 78.5727L93.4597 12.7692C91.5264 10.8359 88.9588 9.86788 86.4048 9.87176C83.8433 9.87564 81.2802 10.8514 79.3411 12.7906L23.5579 68.5738C21.6187 70.5129 20.6392 73.0797 20.6391 75.6375C20.6314 78.1953 21.6032 80.7591 23.5365 82.6924L135.574 194.73C137.511 196.667 140.067 197.631 142.629 197.627C145.183 197.623 147.753 196.647 149.692 194.708L190.162 154.238C185.635 153.582 181.195 153.103 176.731 152.775L176.558 152.76C176.293 156.019 174.921 159.196 172.442 161.675C169.673 164.444 166.028 165.832 162.393 165.841C158.743 165.858 155.11 164.474 152.338 161.702C149.697 159.061 148.316 155.635 148.201 152.17C141.474 151.728 136.356 148.24 133.399 143.577C131.88 141.191 130.943 138.496 130.653 135.761C130.36 132.978 130.722 130.103 131.818 127.404C134.015 122.003 139.051 117.426 147.442 115.857C156.795 114.11 165.981 112.567 174.952 111.284C180.095 110.549 185.133 109.905 190.053 109.363ZM169.759 152.375C165.009 152.175 160.146 152.118 155.031 152.148C155.149 153.873 155.862 155.552 157.174 156.865C158.615 158.306 160.505 159.026 162.392 159.027C164.279 159.028 166.172 158.302 167.62 156.853C168.877 155.597 169.587 154.006 169.759 152.375Z" stroke="white" stroke-width="20" mask="url(#path-1-outside-1)"/>
</svg>
